# xmcd
#
# Track frame offsets:
#	150
#	14657
#	29972
#	44422
#	57175
#	69382
#	83915
#	98757
#	113517
#	127307
#	139885
#	153547
#	167787
#	181547
#	193335
#	205780
#	220505
#	233480
#	246517
#	259197
#	271792
#	284257
#	298942
#
# Disc length: 4161 seconds
#
# Revision: 0
# Processed by: cddbd v1.4PL0 Copyright (c) Steve Scherf et al.
# Submitted via: EasyCDDAExtractor 4.6.0.1
#
DISCID=5e103f17
DTITLE=Mississippi Sheiks - Volume 4
DYEAR=1900
DGENRE=Blues
TTITLE0=She's Got Something Crazy
TTITLE1=You'll Work Down To Me Someday
TTITLE2=Somebody's Got To Help Me
TTITLE3=Good Morning Blues
TTITLE4=Blues On My Mind
TTITLE5=Lonesome Grave Took My Baby
TTITLE6=Pop Skull Blues
TTITLE7=Sweet Maggie
TTITLE8=Sales Tax
TTITLE9=It's Backfiring Now
TTITLE10=Lean To One Woman
TTITLE11=I Can't Go Wrong
TTITLE12=Dead Wagon Blues
TTITLE13=She's Going To Her Lonesome Grave
TTITLE14=Fingering With Your Fingers
TTITLE15=If You Don't Want Me Please Don't Dog Me 'Round
TTITLE16=Wake Me Just Before Day
TTITLE17=Old Grey Mule, You Ain't What You Used To Be
TTITLE18=What's The Name Of That Thing?
TTITLE19=Stir It Now
TTITLE20=Jumping Out Blues
TTITLE21=Radio Blues
TTITLE22=Please Don't Give My Love Away
EXTD=
EXTT0=
EXTT1=
EXTT2=
EXTT3=
EXTT4=
EXTT5=
EXTT6=
EXTT7=
EXTT8=
EXTT9=
EXTT10=
EXTT11=
EXTT12=
EXTT13=
EXTT14=
EXTT15=
EXTT16=
EXTT17=
EXTT18=
EXTT19=
EXTT20=
EXTT21=
EXTT22=
PLAYORDER=
